<?xml version="1.0" encoding="UTF-8"?>
<svg xmlns="http://www.w3.org/2000/svg" xmlns:xlink="http://www.w3.org/1999/xlink" width="499pt" height="709pt" viewBox="0 0 499 709" version="1.1">
<defs>
<clipPath id="clip1">
  <path d="M 0.00390625 473 L 446 473 L 446 656 L 0.00390625 656 Z "/>
</clipPath>
<clipPath id="clip2">
  <path d="M 435.964844 602.664062 C 435.964844 601.324219 437.007812 599.730469 438.234375 599.191406 L 442.367188 597.378906 C 444.03125 596.648438 445.355469 594.621094 445.355469 592.808594 L 445.355469 534.011719 C 445.355469 532.238281 444.210938 530.03125 442.769531 529.023438 C 441.28125 527.980469 438.941406 527.992188 437.5 529.050781 C 436.109375 530.074219 435.011719 532.285156 435.011719 534.050781 L 435.011719 592.5 C 435.011719 593.773438 434.253906 594.765625 433.425781 594.765625 C 432.597656 594.765625 431.839844 593.773438 431.839844 592.5 L 431.839844 590.480469 C 431.839844 588.574219 430.277344 587.015625 428.367188 587.015625 L 422.132812 587.015625 C 420.222656 587.015625 418.660156 588.574219 418.660156 590.480469 L 418.660156 592.5 C 418.660156 593.90625 417.769531 595.890625 416.714844 596.828125 C 415.652344 597.777344 414.019531 597.839844 413.003906 597.019531 C 411.691406 595.949219 410.730469 594.027344 410.730469 592.585938 L 410.730469 533.890625 C 410.730469 532.503906 411.675781 530.617188 412.789062 529.789062 C 413.949219 528.921875 415.734375 528.894531 416.808594 529.683594 C 417.945312 530.523438 418.894531 532.398438 418.894531 533.789062 L 418.894531 579.007812 C 418.894531 580.914062 420.457031 582.472656 422.367188 582.472656 L 429.046875 582.472656 C 430.957031 582.472656 432.519531 580.914062 432.519531 579.007812 L 432.519531 544.058594 C 432.519531 542.175781 431.261719 540.59375 429.644531 540.59375 C 428.757812 540.59375 427.96875 539.597656 427.96875 538.324219 L 427.96875 524.421875 C 427.96875 523.03125 428.472656 521.566406 428.953125 521.257812 C 429.835938 520.691406 430.488281 519.179688 430.488281 517.832031 C 430.488281 516.34375 429.308594 515.117188 427.851562 515.117188 C 427.144531 515.117188 426.910156 514.820312 427.132812 514.367188 C 427.695312 513.195312 427.164062 511.632812 425.988281 510.839844 C 425.191406 510.304688 424.535156 509.503906 424.535156 509.253906 C 424.535156 508.402344 423.347656 507.457031 421.882812 506.882812 C 421.316406 506.660156 420.789062 506.382812 420.40625 506.117188 C 419.992188 505.691406 420.46875 505.035156 421.035156 504.566406 C 421.855469 503.894531 422.515625 502.875 422.515625 502.160156 C 422.515625 501.25 421.082031 500.433594 419.28125 499.996094 C 418.027344 499.691406 416.964844 498.339844 416.964844 497.039062 L 416.964844 476.894531 C 416.964844 475.03125 416.035156 473.429688 414.703125 473.429688 C 413.367188 473.429688 412.433594 475.03125 412.433594 476.894531 L 412.433594 497.039062 C 412.433594 498.339844 411.382812 499.691406 410.132812 499.996094 C 408.34375 500.433594 406.917969 501.253906 406.917969 502.160156 C 406.917969 502.894531 407.632812 503.894531 408.511719 504.539062 C 409.109375 504.980469 409.609375 505.644531 409.609375 505.847656 C 408.664062 506.433594 408.039062 506.710938 407.375 506.921875 C 405.675781 507.457031 404.304688 508.394531 404.304688 509.304688 C 404.304688 509.417969 404.195312 509.679688 403.988281 509.976562 C 403.757812 510.316406 403.4375 510.652344 403.101562 510.910156 C 402.105469 511.679688 401.652344 513.199219 402.078125 514.359375 C 402.265625 514.882812 402.035156 515.21875 401.480469 515.21875 C 400.15625 515.21875 399.113281 516.433594 399.113281 517.882812 C 399.113281 519.203125 399.691406 520.640625 400.503906 521.15625 C 400.890625 521.402344 401.335938 522.832031 401.335938 524.222656 L 401.335938 538.730469 C 401.335938 539.972656 400.308594 540.996094 399.0625 540.996094 C 397.453125 540.996094 396.378906 540.019531 396.378906 538.730469 L 396.378906 533.886719 C 396.378906 532.125 395.289062 529.90625 393.917969 528.878906 C 392.488281 527.808594 390.140625 527.789062 388.628906 528.828125 C 387.074219 529.894531 385.890625 532.09375 385.890625 533.886719 L 385.890625 592.601562 C 385.890625 594.359375 386.976562 596.636719 388.339844 597.746094 C 390.199219 599.261719 392.496094 599.328125 393.945312 597.980469 C 395.421875 596.609375 396.476562 594.292969 396.476562 592.5 L 396.476562 550.300781 C 396.476562 549.058594 397.5 548.035156 398.75 548.035156 C 400.355469 548.035156 401.433594 549.011719 401.433594 550.300781 L 401.433594 579.007812 C 401.433594 580.421875 400.757812 582.207031 400 582.882812 C 398.964844 583.8125 398.167969 585.921875 398.167969 587.660156 L 398.167969 613.785156 C 398.167969 615.027344 397.140625 616.050781 395.894531 616.050781 L 0.00390625 616.050781 C -0.328125 616.050781 -0.597656 616.320312 -0.597656 616.652344 C -0.597656 616.980469 -0.328125 617.25 0.00390625 617.25 L 395.894531 617.25 C 397.804688 617.25 399.367188 615.691406 399.367188 613.785156 L 399.367188 587.660156 C 399.367188 586.242188 400.039062 584.460938 400.800781 583.777344 C 401.835938 582.855469 402.632812 580.742188 402.632812 579.007812 L 402.632812 550.300781 C 402.632812 548.324219 400.996094 546.835938 398.75 546.835938 C 396.839844 546.835938 395.277344 548.394531 395.277344 550.300781 L 395.277344 592.5 C 395.277344 593.953125 394.367188 595.953125 393.128906 597.101562 C 392.140625 598.019531 390.515625 597.972656 389.097656 596.816406 C 388.011719 595.933594 387.09375 594 387.09375 592.601562 L 387.09375 533.886719 C 387.09375 532.492188 388.074219 530.664062 389.308594 529.816406 C 390.402344 529.066406 392.183594 529.082031 393.199219 529.839844 C 394.265625 530.640625 395.179688 532.5 395.179688 533.886719 L 395.179688 538.730469 C 395.179688 540.707031 396.816406 542.195312 399.0625 542.195312 C 400.972656 542.195312 402.535156 540.636719 402.535156 538.730469 L 402.535156 524.222656 C 402.535156 522.457031 401.980469 520.671875 401.144531 520.144531 C 400.734375 519.882812 400.3125 518.832031 400.3125 517.882812 C 400.3125 517.058594 400.863281 516.417969 401.480469 516.417969 C 402.867188 516.417969 403.679688 515.253906 403.203125 513.949219 C 402.960938 513.28125 403.25 512.3125 403.835938 511.859375 C 404.757812 511.152344 405.503906 510.066406 405.503906 509.304688 C 406.46875 508.5625 407.082031 508.273438 407.738281 508.066406 C 409.464844 507.515625 410.8125 506.683594 410.8125 505.847656 C 410.8125 505.164062 410.097656 504.214844 409.21875 503.570312 C 408.910156 503.34375 408.617188 503.046875 408.402344 502.742188 C 408.21875 502.484375 408.117188 502.253906 408.117188 502.160156 C 409.089844 501.578125 409.734375 501.332031 410.417969 501.164062 C 412.207031 500.726562 413.636719 498.890625 413.636719 497.039062 L 413.636719 476.894531 C 413.636719 475.605469 414.203125 474.628906 414.703125 474.628906 C 415.199219 474.628906 415.765625 475.605469 415.765625 476.894531 L 415.765625 497.039062 C 415.765625 498.894531 417.203125 500.726562 419 501.164062 C 419.6875 501.332031 420.335938 501.578125 420.804688 501.84375 C 421.316406 502.265625 421.21875 502.503906 421.042969 502.78125 C 420.839844 503.09375 420.5625 503.402344 420.273438 503.640625 C 419.453125 504.320312 418.792969 505.226562 418.792969 505.847656 C 418.792969 506.601562 419.949219 507.414062 421.445312 508 C 422 508.21875 422.519531 508.511719 422.894531 508.808594 C 423.335938 510.019531 424.21875 511.09375 425.316406 511.832031 C 426.023438 512.3125 426.339844 513.242188 426.050781 513.84375 C 425.414062 515.160156 426.316406 516.316406 427.851562 516.316406 C 428.636719 516.316406 429.289062 516.996094 429.289062 517.832031 C 429.289062 518.804688 428.804688 519.925781 428.304688 520.246094 C 427.398438 520.828125 426.769531 522.664062 426.769531 524.421875 L 426.769531 538.324219 C 426.769531 540.207031 428.027344 541.792969 429.644531 541.792969 C 430.53125 541.792969 431.320312 542.789062 431.320312 544.058594 L 431.320312 579.007812 C 431.320312 580.25 430.296875 581.273438 429.046875 581.273438 L 422.367188 581.273438 C 421.121094 581.273438 420.09375 580.25 420.09375 579.007812 L 420.09375 533.789062 C 420.09375 532.015625 418.960938 529.78125 417.519531 528.71875 C 416.011719 527.609375 413.648438 527.648438 412.074219 528.824219 C 410.65625 529.882812 409.53125 532.125 409.53125 533.890625 L 409.53125 592.585938 C 409.53125 594.398438 410.660156 596.65625 412.246094 597.949219 C 413.722656 599.148438 416.019531 599.058594 417.515625 597.722656 C 418.820312 596.558594 419.859375 594.246094 419.859375 592.5 L 419.859375 590.480469 C 419.859375 589.234375 420.882812 588.214844 422.132812 588.214844 L 428.367188 588.214844 C 429.613281 588.214844 430.640625 589.234375 430.640625 590.480469 L 430.640625 592.5 C 430.640625 594.378906 431.851562 595.964844 433.425781 595.964844 C 435 595.964844 436.210938 594.378906 436.210938 592.5 L 436.210938 534.050781 C 436.210938 532.664062 437.132812 530.8125 438.210938 530.019531 C 439.234375 529.265625 441.011719 529.257812 442.082031 530.007812 C 443.203125 530.789062 444.15625 532.628906 444.15625 534.011719 L 444.15625 592.808594 C 444.15625 594.144531 443.113281 595.738281 441.882812 596.277344 L 437.75 598.09375 C 436.085938 598.824219 434.765625 600.847656 434.765625 602.664062 L 434.765625 654.761719 C 434.765625 655.09375 435.03125 655.363281 435.363281 655.363281 C 435.695312 655.363281 435.964844 655.09375 435.964844 654.761719 Z "/>
</clipPath>
</defs>
<g id="surface1">
<g clip-path="url(#clip1)" clip-rule="nonzero">
<g clip-path="url(#clip2)" clip-rule="nonzero">
<path style=" stroke:none;fill-rule:evenodd;fill:rgb(0%,58.824158%,83.921814%);fill-opacity:1;" d="M -1.796875 472.230469 L 446.554688 472.230469 L 446.554688 656.5625 L -1.796875 656.5625 Z "/>
</g>
</g>
</g>
</svg>
