<?xml version="1.0" encoding="UTF-8"?>
<svg xmlns="http://www.w3.org/2000/svg" xmlns:xlink="http://www.w3.org/1999/xlink" width="800pt" height="224pt" viewBox="0 0 800 224" version="1.1">
<g id="surface1">
<path style=" stroke:none;fill-rule:evenodd;fill:rgb(89.498901%,89.498901%,89.498901%);fill-opacity:1;" d="M 16.371094 207 C 16.371094 206.902344 16.335938 206.804688 16.265625 206.734375 C 16.195312 206.664062 16.097656 206.628906 16 206.628906 C 15.902344 206.628906 15.804688 206.664062 15.734375 206.734375 C 15.664062 206.804688 15.628906 206.902344 15.628906 207 C 15.628906 207.097656 15.664062 207.195312 15.734375 207.265625 C 15.804688 207.335938 15.902344 207.371094 16 207.371094 C 16.097656 207.371094 16.195312 207.335938 16.265625 207.265625 C 16.335938 207.195312 16.371094 207.097656 16.371094 207 Z "/>
<path style=" stroke:none;fill-rule:evenodd;fill:rgb(89.498901%,89.498901%,89.498901%);fill-opacity:1;" d="M 17.746094 207 C 17.746094 206.800781 17.667969 206.613281 17.527344 206.472656 C 17.386719 206.332031 17.199219 206.253906 17 206.253906 C 16.800781 206.253906 16.613281 206.332031 16.472656 206.472656 C 16.332031 206.613281 16.253906 206.800781 16.253906 207 C 16.253906 207.199219 16.332031 207.386719 16.472656 207.527344 C 16.613281 207.667969 16.800781 207.746094 17 207.746094 C 17.199219 207.746094 17.386719 207.667969 17.527344 207.527344 C 17.667969 207.386719 17.746094 207.199219 17.746094 207 Z "/>
<path style=" stroke:none;fill-rule:evenodd;fill:rgb(89.498901%,89.498901%,89.498901%);fill-opacity:1;" d="M 21.488281 206 C 21.488281 205.605469 21.328125 205.226562 21.050781 204.949219 C 20.773438 204.671875 20.394531 204.511719 20 204.511719 C 19.605469 204.511719 19.226562 204.671875 18.949219 204.949219 C 18.671875 205.226562 18.511719 205.605469 18.511719 206 C 18.511719 206.394531 18.671875 206.773438 18.949219 207.050781 C 19.226562 207.328125 19.605469 207.488281 20 207.488281 C 20.394531 207.488281 20.773438 207.328125 21.050781 207.050781 C 21.328125 206.773438 21.488281 206.394531 21.488281 206 Z "/>
<path style=" stroke:none;fill-rule:evenodd;fill:rgb(89.498901%,89.498901%,89.498901%);fill-opacity:1;" d="M 26.957031 204 C 26.957031 203.214844 26.644531 202.464844 26.089844 201.910156 C 25.535156 201.355469 24.785156 201.042969 24 201.042969 C 23.214844 201.042969 22.464844 201.355469 21.910156 201.910156 C 21.355469 202.464844 21.042969 203.214844 21.042969 204 C 21.042969 204.785156 21.355469 205.535156 21.910156 206.089844 C 22.464844 206.644531 23.214844 206.957031 24 206.957031 C 24.785156 206.957031 25.535156 206.644531 26.089844 206.089844 C 26.644531 205.535156 26.957031 204.785156 26.957031 204 Z "/>
<path style=" stroke:none;fill-rule:evenodd;fill:rgb(89.498901%,89.498901%,89.498901%);fill-opacity:1;" d="M 37.847656 201 C 37.847656 199.449219 37.234375 197.960938 36.136719 196.863281 C 35.039062 195.765625 33.550781 195.152344 32 195.152344 C 30.449219 195.152344 28.960938 195.765625 27.863281 196.863281 C 26.765625 197.960938 26.152344 199.449219 26.152344 201 C 26.152344 202.550781 26.765625 204.039062 27.863281 205.136719 C 28.960938 206.234375 30.449219 206.847656 32 206.847656 C 33.550781 206.847656 35.039062 206.234375 36.136719 205.136719 C 37.234375 204.039062 37.847656 202.550781 37.847656 201 Z "/>
<path style=" stroke:none;fill-rule:evenodd;fill:rgb(89.498901%,89.498901%,89.498901%);fill-opacity:1;" d="M 59.4375 196 C 59.4375 192.96875 58.230469 190.058594 56.085938 187.914062 C 53.941406 185.769531 51.03125 184.5625 48 184.5625 C 44.96875 184.5625 42.058594 185.769531 39.914062 187.914062 C 37.769531 190.058594 36.5625 192.96875 36.5625 196 C 36.5625 199.03125 37.769531 201.941406 39.914062 204.085938 C 42.058594 206.230469 44.96875 207.4375 48 207.4375 C 51.03125 207.4375 53.941406 206.230469 56.085938 204.085938 C 58.230469 201.941406 59.4375 199.03125 59.4375 196 Z "/>
<path style=" stroke:none;fill-rule:evenodd;fill:rgb(89.498901%,89.498901%,89.498901%);fill-opacity:1;" d="M 101.867188 185 C 101.867188 179.199219 99.5625 173.640625 95.460938 169.539062 C 91.359375 165.4375 85.800781 163.132812 80 163.132812 C 74.199219 163.132812 68.640625 165.4375 64.539062 169.539062 C 60.4375 173.640625 58.132812 179.199219 58.132812 185 C 58.132812 190.800781 60.4375 196.359375 64.539062 200.460938 C 68.640625 204.5625 74.199219 206.867188 80 206.867188 C 85.800781 206.867188 91.359375 204.5625 95.460938 200.460938 C 99.5625 196.359375 101.867188 190.800781 101.867188 185 Z "/>
<path style=" stroke:none;fill-rule:evenodd;fill:rgb(89.498901%,89.498901%,89.498901%);fill-opacity:1;" d="M 178.988281 167 C 178.988281 156.394531 174.773438 146.222656 167.273438 138.726562 C 159.777344 131.226562 149.605469 127.011719 139 127.011719 C 128.394531 127.011719 118.222656 131.226562 110.726562 138.726562 C 103.226562 146.222656 99.011719 156.394531 99.011719 167 C 99.011719 177.605469 103.226562 187.777344 110.726562 195.273438 C 118.222656 202.773438 128.394531 206.988281 139 206.988281 C 149.605469 206.988281 159.777344 202.773438 167.273438 195.273438 C 174.773438 187.777344 178.988281 177.605469 178.988281 167 Z "/>
<path style=" stroke:none;fill-rule:evenodd;fill:rgb(89.498901%,89.498901%,89.498901%);fill-opacity:1;" d="M 309.984375 140 C 309.984375 122.234375 302.925781 105.199219 290.363281 92.636719 C 277.800781 80.074219 260.765625 73.015625 243 73.015625 C 225.234375 73.015625 208.199219 80.074219 195.636719 92.636719 C 183.074219 105.199219 176.015625 122.234375 176.015625 140 C 176.015625 157.765625 183.074219 174.800781 195.636719 187.363281 C 208.199219 199.925781 225.234375 206.984375 243 206.984375 C 260.765625 206.984375 277.800781 199.925781 290.363281 187.363281 C 302.925781 174.800781 309.984375 157.765625 309.984375 140 Z "/>
<path style=" stroke:none;fill-rule:evenodd;fill:rgb(89.498901%,89.498901%,89.498901%);fill-opacity:1;" d="M 496.558594 113 C 496.558594 87.921875 486.597656 63.867188 468.863281 46.136719 C 451.132812 28.402344 427.078125 18.441406 402 18.441406 C 376.921875 18.441406 352.867188 28.402344 335.136719 46.136719 C 317.402344 63.867188 307.441406 87.921875 307.441406 113 C 307.441406 138.078125 317.402344 162.132812 335.136719 179.863281 C 352.867188 197.597656 376.921875 207.558594 402 207.558594 C 427.078125 207.558594 451.132812 197.597656 468.863281 179.863281 C 486.597656 162.132812 496.558594 138.078125 496.558594 113 Z "/>
<path style=" stroke:none;fill-rule:evenodd;fill:rgb(89.498901%,89.498901%,89.498901%);fill-opacity:1;" d="M 687.960938 111 C 687.960938 85.550781 677.851562 61.140625 659.855469 43.144531 C 641.859375 25.148438 617.449219 15.039062 592 15.039062 C 566.550781 15.039062 542.140625 25.148438 524.144531 43.144531 C 506.148438 61.140625 496.039062 85.550781 496.039062 111 C 496.039062 136.449219 506.148438 160.859375 524.144531 178.855469 C 542.140625 196.851562 566.550781 206.960938 592 206.960938 C 617.449219 206.960938 641.859375 196.851562 659.855469 178.855469 C 677.851562 160.859375 687.960938 136.449219 687.960938 111 Z "/>
<path style=" stroke:none;fill-rule:evenodd;fill:rgb(89.498901%,89.498901%,89.498901%);fill-opacity:1;" d="M 782.898438 156 C 782.898438 142.5 777.535156 129.554688 767.988281 120.011719 C 758.445312 110.464844 745.5 105.101562 732 105.101562 C 718.5 105.101562 705.554688 110.464844 696.011719 120.011719 C 686.464844 129.554688 681.101562 142.5 681.101562 156 C 681.101562 169.5 686.464844 182.445312 696.011719 191.988281 C 705.554688 201.535156 718.5 206.898438 732 206.898438 C 745.5 206.898438 758.445312 201.535156 767.988281 191.988281 C 777.535156 182.445312 782.898438 169.5 782.898438 156 Z "/>
<path style=" stroke:none;fill-rule:evenodd;fill:rgb(89.498901%,89.498901%,89.498901%);fill-opacity:1;" d="M 771.644531 202 C 771.644531 200.503906 771.050781 199.066406 769.992188 198.007812 C 768.933594 196.949219 767.496094 196.355469 766 196.355469 C 764.503906 196.355469 763.066406 196.949219 762.007812 198.007812 C 760.949219 199.066406 760.355469 200.503906 760.355469 202 C 760.355469 203.496094 760.949219 204.933594 762.007812 205.992188 C 763.066406 207.050781 764.503906 207.644531 766 207.644531 C 767.496094 207.644531 768.933594 207.050781 769.992188 205.992188 C 771.050781 204.933594 771.644531 203.496094 771.644531 202 Z "/>
<path style=" stroke:none;fill-rule:evenodd;fill:rgb(89.498901%,89.498901%,89.498901%);fill-opacity:1;" d="M 763.46875 207 C 763.46875 206.875 763.417969 206.757812 763.332031 206.667969 C 763.242188 206.582031 763.125 206.53125 763 206.53125 C 762.875 206.53125 762.757812 206.582031 762.667969 206.667969 C 762.582031 206.757812 762.53125 206.875 762.53125 207 C 762.53125 207.125 762.582031 207.242188 762.667969 207.332031 C 762.757812 207.417969 762.875 207.46875 763 207.46875 C 763.125 207.46875 763.242188 207.417969 763.332031 207.332031 C 763.417969 207.242188 763.46875 207.125 763.46875 207 Z "/>
<path style=" stroke:none;fill-rule:evenodd;fill:rgb(89.498901%,89.498901%,89.498901%);fill-opacity:1;" d="M 763.066406 207 C 763.066406 206.980469 763.058594 206.964844 763.046875 206.953125 C 763.035156 206.941406 763.019531 206.933594 763 206.933594 C 762.980469 206.933594 762.964844 206.941406 762.953125 206.953125 C 762.941406 206.964844 762.933594 206.980469 762.933594 207 C 762.933594 207.019531 762.941406 207.035156 762.953125 207.046875 C 762.964844 207.058594 762.980469 207.066406 763 207.066406 C 763.019531 207.066406 763.035156 207.058594 763.046875 207.046875 C 763.058594 207.035156 763.066406 207.019531 763.066406 207 Z "/>
<path style=" stroke:none;fill-rule:evenodd;fill:rgb(89.498901%,89.498901%,89.498901%);fill-opacity:1;" d="M 763.003906 207 C 763.003906 207 763.003906 207 763.003906 206.996094 C 763 206.996094 763 206.996094 763 206.996094 C 763 206.996094 763 206.996094 762.996094 206.996094 C 762.996094 207 762.996094 207 762.996094 207 C 762.996094 207 762.996094 207 762.996094 207.003906 C 763 207.003906 763 207.003906 763 207.003906 C 763 207.003906 763 207.003906 763.003906 207.003906 C 763.003906 207 763.003906 207 763.003906 207 Z "/>
<path style="fill:none;stroke-width:2;stroke-linecap:square;stroke-linejoin:miter;stroke:rgb(0%,58.799744%,83.898926%);stroke-opacity:1;stroke-miterlimit:3.25;" d="M 82.355469 211.519531 L 82.664062 211.519531 " transform="matrix(1,0,0,1,-66,-5)"/>
<path style="fill:none;stroke-width:2;stroke-linecap:square;stroke-linejoin:miter;stroke:rgb(0%,58.799744%,83.898926%);stroke-opacity:1;stroke-miterlimit:3.25;" d="M 83.410156 210.773438 L 84.027344 210.773438 " transform="matrix(1,0,0,1,-66,-5)"/>
<path style="fill:none;stroke-width:2;stroke-linecap:square;stroke-linejoin:miter;stroke:rgb(0%,58.799744%,83.898926%);stroke-opacity:1;stroke-miterlimit:3.25;" d="M 85.519531 209.289062 L 86.753906 209.296875 " transform="matrix(1,0,0,1,-66,-5)"/>
<path style="fill:none;stroke-width:2;stroke-linecap:square;stroke-linejoin:miter;stroke:rgb(0%,58.799744%,83.898926%);stroke-opacity:1;stroke-miterlimit:3.25;" d="M 89.734375 206.351562 L 92.179688 206.367188 " transform="matrix(1,0,0,1,-66,-5)"/>
<path style="fill:none;stroke-width:2;stroke-linecap:square;stroke-linejoin:miter;stroke:rgb(0%,58.799744%,83.898926%);stroke-opacity:1;stroke-miterlimit:3.25;" d="M 98.121094 200.566406 L 102.949219 200.644531 " transform="matrix(1,0,0,1,-66,-5)"/>
<path style="fill:none;stroke-width:2;stroke-linecap:square;stroke-linejoin:miter;stroke:rgb(0%,58.799744%,83.898926%);stroke-opacity:1;stroke-miterlimit:3.25;" d="M 114.75 189.398438 L 124.15625 189.699219 " transform="matrix(1,0,0,1,-66,-5)"/>
<path style="fill:none;stroke-width:2;stroke-linecap:square;stroke-linejoin:miter;stroke:rgb(0%,58.799744%,83.898926%);stroke-opacity:1;stroke-miterlimit:3.25;" d="M 147.410156 168.578125 L 165.246094 169.71875 " transform="matrix(1,0,0,1,-66,-5)"/>
<path style="fill:none;stroke-width:2;stroke-linecap:square;stroke-linejoin:miter;stroke:rgb(0%,58.799744%,83.898926%);stroke-opacity:1;stroke-miterlimit:3.25;" d="M 210.257812 132.617188 L 242.226562 136.730469 " transform="matrix(1,0,0,1,-66,-5)"/>
<path style="fill:none;stroke-width:2;stroke-linecap:square;stroke-linejoin:miter;stroke:rgb(0%,58.799744%,83.898926%);stroke-opacity:1;stroke-miterlimit:3.25;" d="M 325.621094 80.480469 L 376.355469 93.761719 " transform="matrix(1,0,0,1,-66,-5)"/>
<path style="fill:none;stroke-width:2;stroke-linecap:square;stroke-linejoin:miter;stroke:rgb(0%,58.799744%,83.898926%);stroke-opacity:1;stroke-miterlimit:3.25;" d="M 514.160156 35.269531 L 574.691406 69.289062 " transform="matrix(1,0,0,1,-66,-5)"/>
<path style="fill:none;stroke-width:2;stroke-linecap:square;stroke-linejoin:miter;stroke:rgb(0%,58.799744%,83.898926%);stroke-opacity:1;stroke-miterlimit:3.25;" d="M 740.320312 66.40625 L 771.660156 117.890625 " transform="matrix(1,0,0,1,-66,-5)"/>
<path style="fill:none;stroke-width:2;stroke-linecap:square;stroke-linejoin:miter;stroke:rgb(0%,58.799744%,83.898926%);stroke-opacity:1;stroke-miterlimit:3.25;" d="M 843.335938 184.746094 L 834.617188 201.605469 " transform="matrix(1,0,0,1,-66,-5)"/>
<path style="fill:none;stroke-width:2;stroke-linecap:square;stroke-linejoin:miter;stroke:rgb(0%,58.799744%,83.898926%);stroke-opacity:1;stroke-miterlimit:3.25;" d="M 827.417969 209.882812 L 828.503906 211.414062 " transform="matrix(1,0,0,1,-66,-5)"/>
<path style="fill:none;stroke-width:2;stroke-linecap:square;stroke-linejoin:miter;stroke:rgb(0%,58.799744%,83.898926%);stroke-opacity:1;stroke-miterlimit:3.25;" d="M 829.214844 211.953125 L 829.148438 212.132812 " transform="matrix(1,0,0,1,-66,-5)"/>
<path style="fill:none;stroke-width:2;stroke-linecap:square;stroke-linejoin:miter;stroke:rgb(0%,58.799744%,83.898926%);stroke-opacity:1;stroke-miterlimit:3.25;" d="M 829.085938 212.25 L 829.097656 212.261719 " transform="matrix(1,0,0,1,-66,-5)"/>
<path style="fill:none;stroke-width:2;stroke-linecap:square;stroke-linejoin:miter;stroke:rgb(0%,58.799744%,83.898926%);stroke-opacity:1;stroke-miterlimit:3.25;" d="M 829.105469 212.261719 L 829.105469 212.261719 " transform="matrix(1,0,0,1,-66,-5)"/>
<path style="fill:none;stroke-width:2;stroke-linecap:square;stroke-linejoin:miter;stroke:rgb(0%,58.799744%,83.898926%);stroke-opacity:1;stroke-miterlimit:3.25;" d="M 829.105469 212.265625 L 829.105469 212.265625 " transform="matrix(1,0,0,1,-66,-5)"/>
<path style="fill:none;stroke-width:2;stroke-linecap:square;stroke-linejoin:miter;stroke:rgb(0%,58.799744%,83.898926%);stroke-opacity:1;stroke-miterlimit:3.25;" d="M 829.105469 212.265625 L 829.105469 212.265625 " transform="matrix(1,0,0,1,-66,-5)"/>
<path style="fill:none;stroke-width:2;stroke-linecap:square;stroke-linejoin:miter;stroke:rgb(0%,58.799744%,83.898926%);stroke-opacity:1;stroke-miterlimit:3.25;" d="M 82 211.628906 C 81.902344 211.628906 81.804688 211.664062 81.734375 211.734375 C 81.664062 211.804688 81.628906 211.902344 81.628906 212 " transform="matrix(1,0,0,1,-66,-5)"/>
<path style="fill:none;stroke-width:2;stroke-linecap:square;stroke-linejoin:miter;stroke:rgb(0%,58.799744%,83.898926%);stroke-opacity:1;stroke-miterlimit:3.25;" d="M 83 211.253906 C 82.804688 211.253906 82.613281 211.332031 82.472656 211.472656 C 82.332031 211.613281 82.253906 211.800781 82.253906 212 " transform="matrix(1,0,0,1,-66,-5)"/>
<path style="fill:none;stroke-width:2;stroke-linecap:square;stroke-linejoin:miter;stroke:rgb(0%,58.799744%,83.898926%);stroke-opacity:1;stroke-miterlimit:3.25;" d="M 86.007812 209.511719 C 85.609375 209.511719 85.230469 209.667969 84.953125 209.945312 C 84.671875 210.222656 84.515625 210.601562 84.511719 210.996094 " transform="matrix(1,0,0,1,-66,-5)"/>
<path style="fill:none;stroke-width:2;stroke-linecap:square;stroke-linejoin:miter;stroke:rgb(0%,58.799744%,83.898926%);stroke-opacity:1;stroke-miterlimit:3.25;" d="M 90.023438 206.042969 C 89.238281 206.035156 88.480469 206.34375 87.921875 206.894531 C 87.363281 207.449219 87.046875 208.203125 87.042969 208.988281 " transform="matrix(1,0,0,1,-66,-5)"/>
<path style="fill:none;stroke-width:2;stroke-linecap:square;stroke-linejoin:miter;stroke:rgb(0%,58.799744%,83.898926%);stroke-opacity:1;stroke-miterlimit:3.25;" d="M 98.09375 200.152344 C 96.535156 200.128906 95.03125 200.726562 93.914062 201.816406 C 92.800781 202.902344 92.164062 204.394531 92.152344 205.953125 " transform="matrix(1,0,0,1,-66,-5)"/>
<path style="fill:none;stroke-width:2;stroke-linecap:square;stroke-linejoin:miter;stroke:rgb(0%,58.799744%,83.898926%);stroke-opacity:1;stroke-miterlimit:3.25;" d="M 114.367188 189.570312 C 111.304688 189.472656 108.328125 190.605469 106.109375 192.722656 C 103.890625 194.835938 102.613281 197.753906 102.566406 200.816406 " transform="matrix(1,0,0,1,-66,-5)"/>
<path style="fill:none;stroke-width:2;stroke-linecap:square;stroke-linejoin:miter;stroke:rgb(0%,58.799744%,83.898926%);stroke-opacity:1;stroke-miterlimit:3.25;" d="M 147.398438 168.179688 C 141.488281 167.800781 135.679688 169.832031 131.296875 173.8125 C 126.914062 177.796875 124.335938 183.382812 124.144531 189.300781 " transform="matrix(1,0,0,1,-66,-5)"/>
<path style="fill:none;stroke-width:2;stroke-linecap:square;stroke-linejoin:miter;stroke:rgb(0%,58.799744%,83.898926%);stroke-opacity:1;stroke-miterlimit:3.25;" d="M 210.105469 132.339844 C 199.144531 130.929688 188.089844 134.117188 179.566406 141.144531 C 171.039062 148.171875 165.800781 158.414062 165.09375 169.441406 " transform="matrix(1,0,0,1,-66,-5)"/>
<path style="fill:none;stroke-width:2;stroke-linecap:square;stroke-linejoin:miter;stroke:rgb(0%,58.799744%,83.898926%);stroke-opacity:1;stroke-miterlimit:3.25;" d="M 325.960938 80.199219 C 307.332031 75.324219 287.507812 78.699219 271.542969 89.46875 C 255.582031 100.234375 245.023438 117.351562 242.566406 136.449219 " transform="matrix(1,0,0,1,-66,-5)"/>
<path style="fill:none;stroke-width:2;stroke-linecap:square;stroke-linejoin:miter;stroke:rgb(0%,58.799744%,83.898926%);stroke-opacity:1;stroke-miterlimit:3.25;" d="M 514.328125 35.566406 C 488.78125 21.210938 458.027344 19.507812 431.054688 30.957031 C 404.082031 42.402344 383.941406 65.710938 376.519531 94.054688 " transform="matrix(1,0,0,1,-66,-5)"/>
<path style="fill:none;stroke-width:2;stroke-linecap:square;stroke-linejoin:miter;stroke:rgb(0%,58.799744%,83.898926%);stroke-opacity:1;stroke-miterlimit:3.25;" d="M 739.96875 66.105469 C 722.246094 36.988281 690.410156 19.460938 656.332031 20.054688 C 622.25 20.644531 591.042969 39.273438 574.34375 68.984375 " transform="matrix(1,0,0,1,-66,-5)"/>
<path style="fill:none;stroke-width:2;stroke-linecap:square;stroke-linejoin:miter;stroke:rgb(0%,58.799744%,83.898926%);stroke-opacity:1;stroke-miterlimit:3.25;" d="M 843.210938 184.378906 C 850.058594 171.136719 850.753906 155.558594 845.117188 141.757812 C 839.484375 127.957031 828.078125 117.320312 813.921875 112.65625 C 799.761719 107.992188 784.269531 109.773438 771.535156 117.523438 " transform="matrix(1,0,0,1,-66,-5)"/>
<path style="fill:none;stroke-width:2;stroke-linecap:square;stroke-linejoin:miter;stroke:rgb(0%,58.799744%,83.898926%);stroke-opacity:1;stroke-miterlimit:3.25;" d="M 827.394531 210.261719 C 828.394531 211.675781 829.988281 212.550781 831.71875 212.636719 C 833.449219 212.722656 835.121094 212.011719 836.257812 210.703125 C 837.394531 209.398438 837.871094 207.640625 837.542969 205.941406 C 837.21875 204.238281 836.132812 202.78125 834.59375 201.984375 " transform="matrix(1,0,0,1,-66,-5)"/>
<path style="fill:none;stroke-width:2;stroke-linecap:square;stroke-linejoin:miter;stroke:rgb(0%,58.799744%,83.898926%);stroke-opacity:1;stroke-miterlimit:3.25;" d="M 829.441406 212.15625 C 829.484375 212.027344 829.472656 211.890625 829.410156 211.773438 C 829.34375 211.65625 829.234375 211.574219 829.105469 211.542969 C 828.976562 211.515625 828.839844 211.539062 828.730469 211.617188 " transform="matrix(1,0,0,1,-66,-5)"/>
<path style="fill:none;stroke-width:2;stroke-linecap:square;stroke-linejoin:miter;stroke:rgb(0%,58.799744%,83.898926%);stroke-opacity:1;stroke-miterlimit:3.25;" d="M 828.957031 212.054688 C 828.972656 212.066406 828.992188 212.070312 829.011719 212.066406 C 829.03125 212.0625 829.050781 212.050781 829.058594 212.03125 C 829.070312 212.015625 829.070312 211.996094 829.0625 211.976562 C 829.054688 211.957031 829.039062 211.941406 829.023438 211.9375 " transform="matrix(1,0,0,1,-66,-5)"/>
<path style="fill:none;stroke-width:2;stroke-linecap:square;stroke-linejoin:miter;stroke:rgb(0%,58.799744%,83.898926%);stroke-opacity:1;stroke-miterlimit:3.25;" d="M 829.003906 212 C 829.003906 211.996094 829.003906 211.996094 829 211.996094 C 829 211.996094 829 211.996094 828.996094 211.996094 " transform="matrix(1,0,0,1,-66,-5)"/>
<path style="fill:none;stroke-width:2;stroke-linecap:square;stroke-linejoin:miter;stroke:rgb(0%,58.799744%,83.898926%);stroke-opacity:1;stroke-miterlimit:3.25;" d="M 829 212 L 829 212 " transform="matrix(1,0,0,1,-66,-5)"/>
<path style="fill:none;stroke-width:2;stroke-linecap:square;stroke-linejoin:miter;stroke:rgb(0%,58.799744%,83.898926%);stroke-opacity:1;stroke-miterlimit:3.25;" d="M 829 212 L 829 212 " transform="matrix(1,0,0,1,-66,-5)"/>
<path style="fill:none;stroke-width:2;stroke-linecap:square;stroke-linejoin:miter;stroke:rgb(0%,58.799744%,83.898926%);stroke-opacity:1;stroke-miterlimit:3.25;" d="M 829 212 L 829 212 " transform="matrix(1,0,0,1,-66,-5)"/>
<path style="fill:none;stroke-width:2;stroke-linecap:square;stroke-linejoin:miter;stroke:rgb(72.898865%,85.499573%,33.299255%);stroke-opacity:1;stroke-miterlimit:3.25;" d="M 82.351562 212.265625 L 829.105469 212.265625 " transform="matrix(1,0,0,1,-66,-5)"/>
<path style=" stroke:none;fill-rule:evenodd;fill:rgb(69.999695%,29.998779%,19.999695%);fill-opacity:1;" d="M 766.5 207 C 766.5 206.070312 766.132812 205.183594 765.476562 204.523438 C 764.816406 203.867188 763.929688 203.5 763 203.5 C 762.070312 203.5 761.183594 203.867188 760.523438 204.523438 C 759.867188 205.183594 759.5 206.070312 759.5 207 C 759.5 207.929688 759.867188 208.816406 760.523438 209.476562 C 761.183594 210.132812 762.070312 210.5 763 210.5 C 763.929688 210.5 764.816406 210.132812 765.476562 209.476562 C 766.132812 208.816406 766.5 207.929688 766.5 207 Z "/>
</g>
</svg>
